<svg width="26" height="44" viewBox="0 0 26 44" fill="none" xmlns="http://www.w3.org/2000/svg">
<rect x="1" y="0.999512" width="24" height="42" rx="12" stroke="white" stroke-width="2"/>
<path d="M13.4778 34.8088L17.8021 30.6427C18.066 30.3885 18.066 29.9762 17.8021 29.7221C17.5382 29.4678 17.1104 29.4678 16.8466 29.7221L13.6757 32.7769L13.6757 21.6505C13.6757 21.291 13.3731 20.9995 13 20.9995C12.6269 20.9995 12.3243 21.291 12.3243 21.6505L12.3243 32.7769L9.15346 29.7222C8.88957 29.4679 8.46178 29.4679 8.19789 29.7222C8.06605 29.8492 8 30.0159 8 30.1825C8 30.3491 8.06605 30.5157 8.19789 30.6428L12.5222 34.8088C12.7861 35.0631 13.2139 35.0631 13.4778 34.8088Z" fill="white"/>
</svg>
