<svg width="40" height="40" viewBox="0 0 40 40" fill="none" xmlns="http://www.w3.org/2000/svg">
<path d="M20 0C16.6598 0 13.3529 0.840396 10.438 2.43089C10.0539 2.64079 9.91208 3.12158 10.122 3.50574C10.3319 3.8899 10.8143 4.03168 11.196 3.82178C13.8796 2.35802 16.9244 1.58416 20 1.58416C30.1545 1.58416 38.4158 9.84554 38.4158 20C38.4158 30.1545 30.1545 38.4158 20 38.4158C9.84554 38.4158 1.58416 30.1545 1.58416 20C1.58416 15.0408 3.52871 10.3889 7.06059 6.8998C7.37188 6.59248 7.37505 6.09109 7.06693 5.7798C6.7596 5.46772 6.25901 5.46535 5.94693 5.77267C2.11168 9.56198 0 14.6147 0 20C0 31.0281 8.97188 40 20 40C31.0281 40 40 31.0281 40 20C40 8.97188 31.0281 0 20 0Z" fill="white"/>
<path d="M14.8734 28H17.0133C17.6684 28 17.8867 27.7676 17.8867 27.1338V22.1056H18.4545C19.3497 22.1056 19.6118 22.4225 19.983 23.2676L21.7298 27.1761C22.0355 27.8732 22.2757 28 23.302 28H25.3545C26.0314 28 26.1188 27.5775 25.8786 27.0493L23.3893 21.831C22.9526 20.9437 22.6251 20.2887 22.0355 19.8662L25.6166 13.8873C25.9004 13.3803 25.7257 13 25.1143 13H22.9089C21.9263 13 21.7517 13.1056 21.4023 13.7394L18.6728 18.7465H17.8867V13.8662C17.8867 13.2324 17.6684 13 17.0133 13H14.8734C14.2402 13 14 13.2324 14 13.8662V27.1338C14 27.7676 14.2402 28 14.8734 28Z" fill="white"/>
</svg>
