<svg width="20" height="20" viewBox="0 0 20 20" fill="none" xmlns="http://www.w3.org/2000/svg">
<path d="M14.4806 -0.000488281H5.51916C2.4759 -0.000488281 0 2.47553 0 5.51879V14.4802C0 17.5236 2.4759 19.9995 5.51916 19.9995H14.4806C17.5241 19.9995 20 17.5235 20 14.4802V5.51879C20.0001 2.47553 17.5241 -0.000488281 14.4806 -0.000488281ZM18.2256 14.4802C18.2256 16.5452 16.5456 18.225 14.4807 18.225H5.51916C3.45435 18.2251 1.7745 16.5452 1.7745 14.4802V5.51879C1.7745 3.45398 3.45435 1.77401 5.51916 1.77401H14.4806C16.5455 1.77401 18.2255 3.45398 18.2255 5.51879V14.4802H18.2256Z" fill="white"/>
<path d="M10 4.84625C7.15832 4.84625 4.84651 7.15807 4.84651 9.99975C4.84651 12.8413 7.15832 15.153 10 15.153C12.8417 15.153 15.1535 12.8413 15.1535 9.99975C15.1535 7.15807 12.8417 4.84625 10 4.84625ZM10 13.3784C8.1369 13.3784 6.621 11.8627 6.621 9.99963C6.621 8.13641 8.13678 6.62063 10 6.62063C11.8632 6.62063 13.379 8.13641 13.379 9.99963C13.379 11.8627 11.8631 13.3784 10 13.3784Z" fill="white"/>
<path d="M15.3696 3.3416C15.0277 3.3416 14.6919 3.48001 14.4504 3.72252C14.2078 3.96386 14.0683 4.29983 14.0683 4.6429C14.0683 4.9849 14.2079 5.32075 14.4504 5.56327C14.6918 5.8046 15.0277 5.94419 15.3696 5.94419C15.7127 5.94419 16.0475 5.8046 16.29 5.56327C16.5325 5.32075 16.6709 4.98478 16.6709 4.6429C16.6709 4.29983 16.5325 3.96386 16.29 3.72252C16.0487 3.48001 15.7127 3.3416 15.3696 3.3416Z" fill="white"/>
</svg>
