<svg width="8" height="16" viewBox="0 0 8 16" fill="none" xmlns="http://www.w3.org/2000/svg">
<path d="M7.69874 0.00284079L5.77991 -0.000488281C3.62416 -0.000488281 2.23102 1.54503 2.23102 3.93713V5.75264H0.301719C0.135004 5.75264 0 5.89879 0 6.07906V8.70952C0 8.88979 0.135158 9.03577 0.301719 9.03577H2.23102V15.6733C2.23102 15.8535 2.36603 15.9995 2.53274 15.9995H5.04993C5.21665 15.9995 5.35165 15.8534 5.35165 15.6733V9.03577H7.60746C7.77417 9.03577 7.90918 8.88979 7.90918 8.70952L7.9101 6.07906C7.9101 5.9925 7.87824 5.90961 7.82174 5.84835C7.76525 5.7871 7.68828 5.75264 7.60823 5.75264H5.35165V4.21361C5.35165 3.47389 5.51467 3.09837 6.40582 3.09837L7.69844 3.09788C7.865 3.09788 8 2.95173 8 2.77163V0.329089C8 0.149153 7.86515 0.00317369 7.69874 0.00284079Z" fill="white"/>
</svg>
