<svg width="39" height="40" viewBox="0 0 39 40" fill="none" xmlns="http://www.w3.org/2000/svg">
<path d="M39 20C39 31.0457 30.2696 40 19.5 40C8.73045 40 0 31.0457 0 20C0 8.9543 8.73045 0 19.5 0C30.2696 0 39 8.9543 39 20Z" fill="#FF6493"/>
<path d="M21.7841 20.9455L17.2583 24.8153C16.9704 25.0616 16.5036 25.0616 16.2158 24.8153C15.9281 24.5692 15.9281 24.1701 16.2158 23.9241L20.2205 20.4999L16.216 17.0759C15.9282 16.8298 15.9282 16.4307 16.216 16.1846C16.5037 15.9385 16.9705 15.9385 17.2584 16.1846L21.7842 20.0544C21.9281 20.1775 22 20.3387 22 20.4999C22 20.6612 21.928 20.8225 21.7841 20.9455Z" fill="white"/>
</svg>
