<svg width="22" height="18" viewBox="0 0 22 18" fill="none" xmlns="http://www.w3.org/2000/svg">
<path d="M22 2.13043C21.1819 2.49182 20.3101 2.73136 19.4012 2.84767C20.3363 2.28551 21.0499 1.40213 21.3854 0.337358C20.5136 0.860742 19.5511 1.23044 18.5254 1.43674C17.6976 0.549204 16.5179 -0.000488281 15.2309 -0.000488281C12.7339 -0.000488281 10.7236 2.04044 10.7236 4.54244C10.7236 4.90244 10.7539 5.24859 10.8281 5.57813C7.0785 5.39397 3.76063 3.58428 1.53175 0.827512C1.14262 1.50736 0.914375 2.28551 0.914375 3.1232C0.914375 4.69613 1.71875 6.09043 2.91775 6.89767C2.19313 6.88382 1.48225 6.67197 0.88 6.33828C0.88 6.35213 0.88 6.37013 0.88 6.38813C0.88 8.5952 2.44337 10.4284 4.4935 10.8507C4.12637 10.9518 3.72625 11.0003 3.311 11.0003C3.02225 11.0003 2.73075 10.9837 2.45712 10.9227C3.0415 12.7214 4.69975 14.0437 6.6715 14.0866C5.137 15.2954 3.18863 16.0237 1.07938 16.0237C0.7095 16.0237 0.35475 16.007 0 15.9614C1.99787 17.2587 4.36562 17.9995 6.919 17.9995C15.2185 17.9995 19.756 11.0764 19.756 5.07551C19.756 4.87474 19.7491 4.6809 19.7395 4.48844C20.6346 3.84874 21.3867 3.04982 22 2.13043Z" fill="white"/>
</svg>
