<svg width="23" height="12" viewBox="0 0 23 12" fill="none" xmlns="http://www.w3.org/2000/svg">
<path d="M22.795 10.7028C22.7332 10.6081 22.3508 9.84829 20.5106 8.2866C18.5842 6.65129 18.843 6.91683 21.1633 4.08921C22.5765 2.36714 23.1415 1.3155 22.9646 0.865917C22.7964 0.437371 21.757 0.550423 21.757 0.550423L18.301 0.568827C18.301 0.568827 18.0451 0.537277 17.8539 0.641128C17.6685 0.743663 17.5492 0.980283 17.5492 0.980283C17.5492 0.980283 17.0014 2.31325 16.2711 3.44639C14.7315 5.83758 14.1147 5.96377 13.8632 5.81523C13.278 5.4695 13.4247 4.42443 13.4247 3.68302C13.4247 1.36545 13.8085 0.399249 12.6757 0.149483C12.299 0.0666655 12.023 0.0114541 11.0613 0.00225219C9.82779 -0.00957883 8.78265 0.00619586 8.1918 0.270422C7.79789 0.446573 7.49456 0.839626 7.68001 0.861974C7.90859 0.889579 8.42613 0.989486 8.70071 1.33127C9.0558 1.77165 9.04286 2.76282 9.04286 2.76282C9.04286 2.76282 9.247 5.49053 8.56701 5.82969C8.09979 6.06237 7.46006 5.58781 6.08714 3.41747C5.38415 2.30667 4.85224 1.07756 4.85224 1.07756C4.85224 1.07756 4.75017 0.848828 4.56759 0.726574C4.3462 0.578029 4.03568 0.530705 4.03568 0.530705L0.749314 0.549109C0.749314 0.549109 0.256215 0.562254 0.0750764 0.758124C-0.0859354 0.93296 0.062138 1.29315 0.062138 1.29315C0.062138 1.29315 2.63545 6.7972 5.54804 9.57224C8.22055 12.1159 11.2539 11.949 11.2539 11.949H12.6282C12.6282 11.949 13.0437 11.9069 13.255 11.6979C13.4506 11.506 13.4434 11.1458 13.4434 11.1458C13.4434 11.1458 13.4161 9.45918 14.2729 9.21073C15.1167 8.96623 16.2007 10.8408 17.3493 11.5625C18.2177 12.108 18.8775 11.9884 18.8775 11.9884L21.9497 11.949C21.9497 11.949 23.5569 11.8583 22.795 10.7028Z" fill="white"/>
</svg>
